<svg xmlns="http://www.w3.org/2000/svg" viewBox="0 0 512 512" width="30" height="30">
  <style>

    @keyframes beat {
      0% { transform: scale(0.8); }
      50% { transform: scale(1); }
      100% { transform: scale(0.8); }
    }

    @keyframes hide {
      0% { opacity: 1; }
      50% { opacity: 0.8; }
      100% { opacity: 1; }
    }

  
    path {
      animation: beat 1s ease-in-out infinite, hide 1s ease-in-out infinite;
    }
  </style>
  <path d="M256 0c17.7 0 32 14.3 32 32V66.7C368.4 80.1 431.9 143.6 445.3 224H480c17.7 0 32 14.3 32 32s-14.3 32-32 32H445.3C431.9 368.4 368.4 431.9 288 445.3V480c0 17.7-14.3 32-32 32s-32-14.3-32-32V445.3C143.6 431.9 80.1 368.4 66.7 288H32c-17.7 0-32-14.3-32-32s14.3-32 32-32H66.7C80.1 143.6 143.6 80.1 224 66.7V32c0-17.7 14.3-32 32-32zM128 256a128 128 0 1 0 256 0 128 128 0 1 0 -256 0zm128-80a80 80 0 1 1 0 160 80 80 0 1 1 0-160z" fill="#00c2b3"/>
</svg>